<?xml version="1.0" encoding="UTF-8"?>
<svg version="1.1" xmlns="http://www.w3.org/2000/svg" width="443" height="389">
<path d="M0 0 C146.19 0 292.38 0 443 0 C443 128.37 443 256.74 443 389 C296.81 389 150.62 389 0 389 C0 260.63 0 132.26 0 0 Z " fill="#282F36" transform="translate(0,0)"/>
<path d="M0 0 C2.00781177 0.98422146 4.00892752 1.98234073 6 3 C8.43717258 2.72965366 8.43717258 2.72965366 11 2 C16.20587161 1.50066129 19.69906151 1.71104704 24 5 C24.99 5.99 24.99 5.99 26 7 C28.27414225 7.12902542 28.27414225 7.12902542 30.8125 6.9375 C35.14754152 6.86898641 37.59912213 7.08496182 41 10 C45.7232056 14.87630788 47.62642861 19.63013768 49.625 26.0625 C49.92422363 27.00134033 50.22344727 27.94018066 50.53173828 28.9074707 C53.92166882 39.70299552 56.44525241 49.75755098 56.35888672 61.11987305 C56.57603013 72.81478825 63.03706418 83.45958822 68.5625 93.4375 C69.17456299 94.56075684 69.78662598 95.68401367 70.41723633 96.84130859 C73.31541242 102.15331936 76.24614938 107.44662873 79.1953125 112.73046875 C93.97867697 139.30808108 106.19555994 165.88723915 109.35449219 196.40454102 C109.6691075 199.43075596 110.03391845 202.10175535 111 205 C111.1484944 207.61864161 111.2310027 210.1932477 111.25 212.8125 C111.2809375 213.86147461 111.2809375 213.86147461 111.3125 214.93164062 C111.37109869 222.76189031 108.10522768 227.39303413 102.9375 232.9375 C102.45216797 233.45965088 101.96683594 233.98180176 101.46679688 234.51977539 C94.07782844 242.26305879 85.78484776 246.88183586 76 251 C74.4679144 251.6738847 72.93674172 252.34984691 71.40625 253.02734375 C34.2031999 269.39981928 -7.05965763 282.47363025 -47.18359375 268.1875 C-51.3712929 266.4218127 -55.34839333 264.29947423 -59.30859375 262.07421875 C-62.50100293 260.80003511 -63.79962558 260.80436898 -67 262 C-69.27557597 263.68992296 -69.27557597 263.68992296 -71.375 265.8125 C-75.05915132 269.24980701 -78.52325211 271.71400108 -83 274 C-85.64 271.03 -88.28 268.06 -91 265 C-88.28919443 262.28919443 -85.88899318 260.01908993 -82.875 257.75 C-82.19179687 257.22921875 -81.50859375 256.7084375 -80.8046875 256.171875 C-79 255 -79 255 -77 255 C-76.7525 254.443125 -76.505 253.88625 -76.25 253.3125 C-73.64083626 248.48554708 -69.86932282 244.83094937 -66 241 C-65.175 241.58007812 -64.35 242.16015625 -63.5 242.7578125 C-41.35491879 257.90902597 -16.2562643 261.87278106 10.09765625 257.73828125 C28.44690521 254.26680172 45.0460537 247.89112476 62.21582031 240.64233398 C63.26350586 240.20219971 64.31119141 239.76206543 65.390625 239.30859375 C66.32938477 238.91212646 67.26814453 238.51565918 68.23535156 238.10717773 C71.04433163 236.98224621 73.87600493 236.00730374 76.75 235.0625 C85.44451336 231.92697866 93.78937683 225.42124634 98 217 C97.74919265 213.97423438 97.40530043 211.00708415 97 208 C96.85401367 206.88447754 96.70802734 205.76895508 96.55761719 204.61962891 C91.20699908 164.98869151 76.10178737 132.57492329 57.33886719 97.45996094 C53.81652166 90.8001133 50.80557302 83.99112302 48 77 C43.05 77.495 43.05 77.495 38 78 C39.52994792 76.01432292 41.05989583 74.02864583 42.58984375 72.04296875 C45.38645787 67.99136436 45.18318275 63.98171107 45.1875 59.25 C45.19974609 58.5590625 45.21199219 57.868125 45.22460938 57.15625 C45.238006 52.40491235 44.49414856 48.51197429 43 44 C42.443125 44.72703125 42.443125 44.72703125 41.875 45.46875 C38.65834264 48.09568685 34.8235819 47.475777 30.8125 47.59375 C27.62715326 48.05385564 27.04984711 48.66660055 25 51 C22.69011685 51.74386068 20.35684056 52.42190703 18 53 C19.2065625 54.299375 19.2065625 54.299375 20.4375 55.625 C22.96924136 58.62876093 23.71657376 61.03203262 24 65 C23.48050781 64.59007812 22.96101562 64.18015625 22.42578125 63.7578125 C15.67920096 58.54511275 10.67284861 55.975297 2 57 C-0.46108397 57.81878371 -2.65246227 58.87318189 -5 60 C-5.99 60 -6.98 60 -8 60 C-8 59.01 -8 58.02 -8 57 C-9.98 56.67 -11.96 56.34 -14 56 C-10.82260771 53.88173848 -7.54521473 52.16502761 -4.15625 50.4140625 C-1.76554963 48.84624812 -0.47344531 47.44170937 1 45 C1.25086724 41.83267579 1.25086724 41.83267579 1 39 C-2.35951302 39.60538788 -5.44884363 40.43324081 -8.64453125 41.62890625 C-9.90620117 42.09780273 -9.90620117 42.09780273 -11.19335938 42.57617188 C-12.05767578 42.90166016 -12.92199219 43.22714844 -13.8125 43.5625 C-14.69615234 43.89185547 -15.57980469 44.22121094 -16.49023438 44.56054688 C-18.66143495 45.37034601 -20.83127889 46.18358893 -23 47 C-23.08150744 49.06183633 -23.1394194 51.12461349 -23.1875 53.1875 C-23.22230469 54.33605469 -23.25710937 55.48460937 -23.29296875 56.66796875 C-22.96695474 60.37583479 -22.27903281 62.08706402 -20 65 C-13.79960243 69.81224886 -6.21018232 73.00549129 1 76 C2.14275391 76.48339844 2.14275391 76.48339844 3.30859375 76.9765625 C11.51432677 80.10673517 19.77036506 79.92609242 28 77 C26.26440562 80.057952 24.61527381 82.63379989 22 85 C23.55511569 88.9584763 25.23563957 92.85260971 26.9375 96.75 C33.64937391 112.3589619 36.73897323 126.1074723 33 142.875 C29.56356054 159.81678178 28.678762 177.05924281 38.04296875 192.33203125 C39.94439712 194.97463571 41.92445301 197.49376555 44 200 C44.66 200.99 45.32 201.98 46 203 C36.17499796 201.87466937 28.34430011 195.26681313 22 188 C21.5359375 187.41089844 21.071875 186.82179687 20.59375 186.21484375 C14.62308007 178.66858036 5.24104243 172.95142057 -4.41552734 171.68261719 C-7.03535884 171.52634477 -9.62561715 171.48117441 -12.25 171.5 C-13.17659424 171.50572021 -14.10318848 171.51144043 -15.05786133 171.51733398 C-30.25382131 171.9122933 -42.21498952 180.5078232 -52.875 190.8125 C-53.431875 191.4003125 -53.431875 191.4003125 -54 192 C-53.71344568 185.69580502 -51.20065091 181.1569422 -48.1796875 175.671875 C-46.63318889 172.97966291 -46.63318889 172.97966291 -48 170 C-49.908725 168.41975326 -51.77150698 167.01331774 -53.8125 165.625 C-54.39346436 165.22724365 -54.97442871 164.8294873 -55.57299805 164.41967773 C-70.94742718 154.20685751 -89.635895 151.02682923 -107.75537109 154.53320312 C-114.49391217 156.29052652 -120.85573143 158.68783468 -126.87109375 162.203125 C-130 164 -130 164 -132 164 C-131.57833209 158.09664923 -130.9061369 152.66733281 -127 148 C-113.72389201 138.68258603 -93.07492306 138.40552144 -77.6940918 140.87548828 C-63.90902683 143.3706257 -52.36876375 148.72872002 -42.1875 158.5 C-39.14167074 161.43256569 -39.14167074 161.43256569 -35.125 162.1875 C-33.578125 161.5996875 -33.578125 161.5996875 -32 161 C-16.75789745 155.73112504 -1.17137227 156.61357309 13.39453125 163.63671875 C14.25433594 164.08660156 15.11414063 164.53648437 16 165 C16.08040527 164.38592285 16.16081055 163.7718457 16.24365234 163.13916016 C16.61732401 160.30064141 16.9961369 157.46283032 17.375 154.625 C17.50132812 153.65949219 17.62765625 152.69398438 17.7578125 151.69921875 C18.39130457 146.97970283 19.10368207 142.31520608 20.07421875 137.65234375 C22.47330009 126.01287012 20.63360464 115.95346961 16.68701172 104.94482422 C16.08220388 103.23270652 15.55250202 101.4944501 15.03515625 99.75390625 C13.0390134 94.63213047 10.65006273 92.1017404 5.6953125 89.8359375 C2.24042253 88.41601346 -1.25909606 87.15219248 -4.78125 85.91015625 C-9.56075629 84.22208649 -13.98804762 82.16870853 -18.4375 79.75 C-19.59121094 79.12609375 -20.74492187 78.5021875 -21.93359375 77.859375 C-28.02273718 74.16710459 -31.77534385 70.88149653 -33.55859375 63.7734375 C-34.10346628 60.34990214 -34.24617525 57.02884081 -34.3125 53.5625 C-34.36857422 51.64630859 -34.36857422 51.64630859 -34.42578125 49.69140625 C-33.92280356 45.33072809 -32.84975135 43.3118732 -30 40 C-27.51171875 38.49609375 -27.51171875 38.49609375 -24.6875 37.4375 C-23.635625 37.04046875 -22.58375 36.6434375 -21.5 36.234375 C-20.345 35.82703125 -19.19 35.4196875 -18 35 C-17.36964844 34.76861328 -16.73929687 34.53722656 -16.08984375 34.29882812 C-3.14760735 29.55162611 -3.14760735 29.55162611 4 30 C4.66 30.33 5.32 30.66 6 31 C5.38251126 28.22729571 4.75637544 25.45704402 4.125 22.6875 C3.95097656 21.90181641 3.77695313 21.11613281 3.59765625 20.30664062 C3.42363281 19.54931641 3.24960938 18.79199219 3.0703125 18.01171875 C2.91320801 17.31522217 2.75610352 16.61872559 2.59423828 15.90112305 C2.00486607 13.70265788 2.00486607 13.70265788 0 11 C-3.54187831 10.66661404 -3.54187831 10.66661404 -7 11 C-8.34404775 12.11836224 -8.34404775 12.11836224 -8.125 15 C-8.07053477 19.36629595 -7.54954153 23.67236043 -7 28 C-8.98 28.33 -10.96 28.66 -13 29 C-13.19335938 28.30132812 -13.38671875 27.60265625 -13.5859375 26.8828125 C-13.84632813 25.97273438 -14.10671875 25.06265625 -14.375 24.125 C-14.63023437 23.22007813 -14.88546875 22.31515625 -15.1484375 21.3828125 C-15.8604315 18.85430274 -15.8604315 18.85430274 -18 17 C-21.04182893 16.74994614 -21.04182893 16.74994614 -24 17 C-24.495 17.495 -24.495 17.495 -25 18 C-24.79510922 23.02913736 -24.14375899 28.09817576 -23 33 C-25.97 33.66 -28.94 34.32 -32 35 C-34.32210499 28.50363486 -36.43750427 21.92088751 -35 15 C-32.9253993 11.25880341 -30.29710327 8.80630744 -26.6875 6.5625 C-22.78434761 5.74556113 -18.97154505 5.84425314 -15 6 C-15 5.34 -15 4.68 -15 4 C-9.62602496 0.41734997 -6.46829861 -0.71869985 0 0 Z " fill="#F26207" transform="translate(212,67)"/>
<path d="M0 0 C10.97666223 10.88236101 17.20601537 31.21341024 19.2734375 46.25390625 C17.61000913 47.91733462 15.4908666 47.61438722 13.2109375 47.81640625 C12.29183594 47.90019531 11.37273437 47.98398438 10.42578125 48.0703125 C9.71550781 48.13089844 9.00523438 48.19148438 8.2734375 48.25390625 C7.95890625 47.67640625 7.644375 47.09890625 7.3203125 46.50390625 C6.89234375 45.76140625 6.464375 45.01890625 6.0234375 44.25390625 C5.60578125 43.51140625 5.188125 42.76890625 4.7578125 42.00390625 C4.02304688 41.13765625 4.02304688 41.13765625 3.2734375 40.25390625 C1.9534375 40.25390625 0.6334375 40.25390625 -0.7265625 40.25390625 C-4.59946006 50.53497167 -3.20191903 60.8096236 -0.5390625 71.19140625 C-0.34304443 71.97153076 -0.14702637 72.75165527 0.05493164 73.55541992 C1.59443762 79.09043701 4.00125348 83.54597621 7.2734375 88.25390625 C9.7484375 87.75890625 9.7484375 87.75890625 12.2734375 87.25390625 C12.9334375 83.95390625 13.5934375 80.65390625 14.2734375 77.25390625 C17.74668931 76.09615565 20.63411198 76.18523973 24.2734375 76.25390625 C26.05851916 81.60915123 25.45934345 87.42069273 25.45874023 93.0300293 C25.46090625 95.28388947 25.47901205 97.53724336 25.49804688 99.79101562 C25.58367157 119.52107907 25.58367157 119.52107907 21.14453125 125.73046875 C17.62314351 128.82545716 14.84769908 129.71566203 10.3359375 130.62890625 C9.64564453 130.79261719 8.95535156 130.95632812 8.24414062 131.125 C2.44300629 132.43369192 -1.8857956 133.34473108 -7.1015625 130.25390625 C-28.8010089 109.75200104 -32.82411128 62.71589254 -34.04296875 35.1015625 C-34.69560434 11.83230679 -34.69560434 11.83230679 -28.07421875 3.06640625 C-24.94125179 0.64760979 -21.69855432 -0.18148623 -17.9140625 -1.05859375 C-17.22763672 -1.23970703 -16.54121094 -1.42082031 -15.83398438 -1.60742188 C-10.07924934 -3.0066337 -5.19333683 -3.32581886 0 0 Z " fill="#F86303" transform="translate(117.7265625,45.74609375)"/>
<path d="M0 0 C1.06734375 0.1753125 2.1346875 0.350625 3.234375 0.53125 C13.21018662 2.4271056 13.21018662 2.4271056 16.1875 5.75 C29.81521148 30.18589645 18.04511686 72.51586654 11 97.375 C2.03435715 127.8462239 2.03435715 127.8462239 -9 134 C-12.47132531 134.27994559 -15.6041063 133.70194451 -19 133 C-20.04671875 132.80921875 -21.0934375 132.6184375 -22.171875 132.421875 C-26.52761551 131.50823187 -30.02544078 130.76063158 -33.5625 128 C-37.95152451 118.84029668 -38.42717017 109.68960952 -38.28125 99.71801758 C-38.24969782 97.54165683 -38.24022534 95.36602157 -38.234375 93.18945312 C-38.16526868 82.66107471 -38.16526868 82.66107471 -37 78 C-33.7 78.33 -30.4 78.66 -27 79 C-26.609375 81.5390625 -26.21875 84.078125 -25.828125 86.6171875 C-25.22016157 89.16214243 -25.22016157 89.16214243 -22.921875 90.3203125 C-22.28765625 90.54460937 -21.6534375 90.76890625 -21 91 C-16.2907246 85.58934316 -14.28690201 79.71524937 -12 73 C-11.74863281 72.26910156 -11.49726563 71.53820312 -11.23828125 70.78515625 C-9.76439784 65.50635396 -9.80012745 60.13090953 -9.75 54.6875 C-9.74057373 53.89770752 -9.73114746 53.10791504 -9.72143555 52.29418945 C-9.74077132 46.87041632 -9.74077132 46.87041632 -12 42 C-14.37897003 41.95489639 -14.37897003 41.95489639 -17 43 C-18.67849824 45.2308475 -19.75999263 47.47405906 -21 50 C-22.45922693 49.88590407 -23.91740598 49.75834456 -25.375 49.625 C-26.18710937 49.55539063 -26.99921875 49.48578125 -27.8359375 49.4140625 C-30 49 -30 49 -32 47 C-22.12014271 7.24307429 -22.12014271 7.24307429 -10.01171875 -0.2265625 C-6.63540645 -1.52463985 -3.44835411 -0.65063285 0 0 Z " fill="#F96303" transform="translate(329,44)"/>
<path d="M0 0 C0 1.32 0 2.64 0 4 C0.61552734 4.09845215 1.23105469 4.1969043 1.86523438 4.29833984 C5.58852607 5.52212076 6.78109619 9.32784583 8.5 12.625 C8.92579346 13.41898193 9.35158691 14.21296387 9.7902832 15.03100586 C10.71500324 16.76225115 11.63309689 18.49704801 12.54541016 20.23486328 C14.0374668 23.0712234 15.55428462 25.89333761 17.07421875 28.71484375 C23.05572211 39.89818405 28.61263149 51.09228165 33 63 C33.23799316 63.64372559 33.47598633 64.28745117 33.72119141 64.95068359 C38.29417629 77.5160925 40.98113482 90.1289184 42.35424805 103.40380859 C42.66912756 106.43020987 43.03384779 109.10154338 44 112 C44.1484944 114.61864161 44.2310027 117.1932477 44.25 119.8125 C44.270625 120.51181641 44.29125 121.21113281 44.3125 121.93164062 C44.37109869 129.76189031 41.10522768 134.39303413 35.9375 139.9375 C35.45216797 140.45965088 34.96683594 140.98180176 34.46679688 141.51977539 C27.07782844 149.26305879 18.78484776 153.88183586 9 158 C7.4679144 158.6738847 5.93674172 159.34984691 4.40625 160.02734375 C-32.7968001 176.39981928 -74.05965763 189.47363025 -114.18359375 175.1875 C-118.3712929 173.4218127 -122.34839333 171.29947423 -126.30859375 169.07421875 C-129.50100293 167.80003511 -130.79962558 167.80436898 -134 169 C-136.27557597 170.68992296 -136.27557597 170.68992296 -138.375 172.8125 C-142.05915132 176.24980701 -145.52325211 178.71400108 -150 181 C-152.64 178.03 -155.28 175.06 -158 172 C-155.28919443 169.28919443 -152.88899318 167.01908993 -149.875 164.75 C-148.85019531 163.96882813 -148.85019531 163.96882813 -147.8046875 163.171875 C-146 162 -146 162 -144 162 C-143.7525 161.443125 -143.505 160.88625 -143.25 160.3125 C-140.64083626 155.48554708 -136.86932282 151.83094937 -133 148 C-131.7625 148.87011719 -131.7625 148.87011719 -130.5 149.7578125 C-108.35491879 164.90902597 -83.2562643 168.87278106 -56.90234375 164.73828125 C-38.55309479 161.26680172 -21.9539463 154.89112476 -4.78417969 147.64233398 C-3.73649414 147.20219971 -2.68880859 146.76206543 -1.609375 146.30859375 C-0.67061523 145.91212646 0.26814453 145.51565918 1.23535156 145.10717773 C4.04433163 143.98224621 6.87600493 143.00730374 9.75 142.0625 C18.44451336 138.92697866 26.78937683 132.42124634 31 124 C30.74919265 120.97423438 30.40530043 118.00708415 30 115 C29.85401367 113.88447754 29.70802734 112.76895508 29.55761719 111.61962891 C24.83435012 76.6353527 13.74498583 44.69854821 -4.63061523 14.30273438 C-6.03741384 11.93708552 -6.68550165 9.99386714 -7.25 7.3125 C-7.42015625 6.54550781 -7.5903125 5.77851563 -7.765625 4.98828125 C-8 3 -8 3 -7 1 C-4.01793274 -0.8886426 -3.49368922 -1.16456307 0 0 Z " fill="#F46206" transform="translate(279,160)"/>
<path d="M0 0 C0.06731323 1.15278442 0.06731323 1.15278442 0.13598633 2.32885742 C1.90230524 31.85035947 5.38694134 60.05428648 15.8984375 87.9296875 C17 91 17 91 17 93 C11.69293302 94.58280945 7.41821096 95.84014712 2 94 C-14.11117594 76.7699924 -16.15329544 40.66426145 -16.375 18.4375 C-16.38901855 17.46748047 -16.40303711 16.49746094 -16.41748047 15.49804688 C-16.35696804 6.75322484 -16.35696804 6.75322484 -13 3 C-10.87890625 1.85546875 -10.87890625 1.85546875 -8.5625 1.1875 C-7.80066406 0.95417969 -7.03882812 0.72085938 -6.25390625 0.48046875 C-4 0 -4 0 0 0 Z " fill="#F56306" transform="translate(78,70)"/>
<path d="M0 0 C1.93956814 0.255602 3.87665989 0.53004646 5.8125 0.8125 C7.43091797 1.03873047 7.43091797 1.03873047 9.08203125 1.26953125 C12.10897164 2.02727938 13.19115523 2.51809671 15 5 C22.59905411 27.79716232 12.81996944 64.67123322 3.14453125 85.7421875 C2.76683594 86.48726563 2.38914062 87.23234375 2 88 C1.67386719 88.66257812 1.34773438 89.32515625 1.01171875 90.0078125 C-0.544353 92.7613551 -1.70797461 93.89133939 -4.6875 95 C-9.00022388 95 -12.84813785 94.0838109 -17 93 C-16.57589844 91.75734375 -16.15179688 90.5146875 -15.71484375 89.234375 C-10.13654252 72.47002572 -5.84529194 55.43210525 -3 38 C-2.78601563 36.73671875 -2.57203125 35.4734375 -2.3515625 34.171875 C-0.63110314 22.85175112 -0.36644148 11.42969716 0 0 Z " fill="#F46306" transform="translate(356,70)"/>
<path d="M0 0 C4.14104122 11.3139162 4.14104122 11.3139162 1.91259766 16.55981445 C0 19 0 19 -3.13525391 19.90307617 C-4.40288574 20.03174072 -5.67051758 20.16040527 -6.9765625 20.29296875 C-7.66124603 20.36993484 -8.34592957 20.44690094 -9.05136108 20.52619934 C-11.2408904 20.7682792 -13.43204151 20.97900263 -15.625 21.1875 C-18.49308213 21.48531223 -21.35980693 21.79518335 -24.2265625 22.10546875 C-25.25762871 22.2132666 -25.25762871 22.2132666 -26.30952454 22.32324219 C-31.32860253 22.86649127 -36.09768835 23.82447187 -41 25 C-43.3645726 25.14343354 -45.62915832 25.10088688 -48 25 C-48.50980881 23.29456816 -49.00738268 21.58547682 -49.5 19.875 C-49.7784375 18.92367187 -50.056875 17.97234375 -50.34375 16.9921875 C-51.02257018 13.89709074 -51.04603818 11.1574516 -51 8 C-42.67893613 5.76339719 -34.39641848 4.12962581 -25.875 2.875 C-24.77285156 2.70613281 -23.67070312 2.53726563 -22.53515625 2.36328125 C-6.84817913 0 -6.84817913 0 0 0 Z " fill="#F46306" transform="translate(172,93)"/>
<path d="M0 0 C8.37988074 0.32168448 16.50027824 1.49219684 24.75 2.9375 C25.71945557 3.10733398 26.68891113 3.27716797 27.68774414 3.45214844 C33.49508657 4.49351289 39.24949031 5.68069582 45 7 C45.36606507 13.58917127 44.08994176 18.77622799 42 25 C41.2874707 24.88027832 40.57494141 24.76055664 39.84082031 24.63720703 C32.14913365 23.34944166 24.45151103 22.10251356 16.75 20.875 C15.61175781 20.69324219 14.47351563 20.51148437 13.30078125 20.32421875 C10.53391185 19.88244969 7.76698436 19.44104832 5 19 C4.16142312 16.39741676 3.32896656 13.79314353 2.5 11.1875 C2.14228516 10.08051758 2.14228516 10.08051758 1.77734375 8.95117188 C0.80059864 5.86744804 0 3.25504191 0 0 Z " fill="#F36206" transform="translate(268,94)"/>
<path d="M0 0 C2.4375 0.9375 2.4375 0.9375 3.56640625 2.4765625 C8.08912287 15.25374399 3.41081275 32.07906841 -2.125 43.6875 C-3.62715871 46.58346498 -5.15432273 48.73174923 -7.5625 50.9375 C-10.3010669 49.9333588 -11.37459575 49.27572766 -12.8125 46.6875 C-13.63842799 43.65909739 -13.70784994 41.0625237 -13.5625 37.9375 C-16.8625 37.6075 -20.1625 37.2775 -23.5625 36.9375 C-23.8925 48.4875 -24.2225 60.0375 -24.5625 71.9375 C-24.8925 71.9375 -25.2225 71.9375 -25.5625 71.9375 C-25.5625 60.0575 -25.5625 48.1775 -25.5625 35.9375 C-23.2525 35.2775 -20.9425 34.6175 -18.5625 33.9375 C-21.5325 33.2775 -24.5025 32.6175 -27.5625 31.9375 C-27.5625 31.2775 -27.5625 30.6175 -27.5625 29.9375 C-19.94540378 30.4262075 -12.93456762 31.96590052 -5.5625 33.9375 C-4.5725 27.9975 -3.5825 22.0575 -2.5625 15.9375 C-5.5325 15.6075 -8.5025 15.2775 -11.5625 14.9375 C-13.58744198 14.6076343 -15.60937798 14.25771304 -17.625 13.875 C-18.56472656 13.69839844 -19.50445312 13.52179688 -20.47265625 13.33984375 C-21.16230469 13.20707031 -21.85195313 13.07429688 -22.5625 12.9375 C-22.5625 12.6075 -22.5625 12.2775 -22.5625 11.9375 C-18.1075 11.4425 -18.1075 11.4425 -13.5625 10.9375 C-13.5625 10.2775 -13.5625 9.6175 -13.5625 8.9375 C-15.2125 8.6075 -16.8625 8.2775 -18.5625 7.9375 C-15.92999612 6.62124806 -14.76070944 7.18936342 -11.9375 7.875 C-11.12023437 8.06964844 -10.30296875 8.26429687 -9.4609375 8.46484375 C-8.83445312 8.62082031 -8.20796875 8.77679688 -7.5625 8.9375 C-7.294375 8.009375 -7.02625 7.08125 -6.75 6.125 C-4.42790284 -0.10799763 -4.42790284 -0.10799763 0 0 Z " fill="#3A302B" transform="translate(315.5625,85.0625)"/>
<path d="M0 0 C3.5625 0.375 3.5625 0.375 5.1796875 1.9921875 C6.87297729 4.91000325 7.5359647 7.58061491 8.25 10.875 C8.50136719 11.9990625 8.75273437 13.123125 9.01171875 14.28125 C9.5625 17.375 9.5625 17.375 9.5625 21.375 C7.69851562 21.25705078 7.69851562 21.25705078 5.796875 21.13671875 C-0.30750346 21.14030394 -5.51481562 23.09775627 -11.1875 25.1875 C-12.70923828 25.72213867 -12.70923828 25.72213867 -14.26171875 26.26757812 C-22.43251223 28.83777397 -22.43251223 28.83777397 -28.7109375 34.234375 C-29.55733965 36.72807595 -29.85534832 39.00107875 -30.0625 41.625 C-30.17464844 42.96304688 -30.17464844 42.96304688 -30.2890625 44.328125 C-30.33804688 45.00359375 -30.38703125 45.6790625 -30.4375 46.375 C-30.7675 46.375 -31.0975 46.375 -31.4375 46.375 C-31.63267554 44.43825815 -31.81837873 42.50055991 -32 40.5625 C-32.10441406 39.48355469 -32.20882812 38.40460938 -32.31640625 37.29296875 C-32.4375 34.375 -32.4375 34.375 -31.4375 31.375 C-32.0975 31.375 -32.7575 31.375 -33.4375 31.375 C-33.7675 32.695 -34.0975 34.015 -34.4375 35.375 C-35.0975 35.045 -35.7575 34.715 -36.4375 34.375 C-36.1075 33.859375 -35.7775 33.34375 -35.4375 32.8125 C-34.11739123 29.59473488 -34.30507895 26.8179472 -34.4375 23.375 C-33.7775 23.045 -33.1175 22.715 -32.4375 22.375 C-32.03020772 20.05343403 -31.69311323 17.7181213 -31.4375 15.375 C-29.55358215 18.64045761 -28.94462033 21.65611761 -28.4375 25.375 C-25.4675 24.715 -22.4975 24.055 -19.4375 23.375 C-19.9325 22.01375 -20.4275 20.6525 -20.9375 19.25 C-22.18496695 15.49577483 -22.92414764 12.36551063 -22.4375 8.375 C-20.4375 6.375 -20.4375 6.375 -17.5625 5.9375 C-14.4375 6.375 -14.4375 6.375 -12.125 8.375 C-9.97226883 12.20207764 -9.73312636 15.01451117 -9.4375 19.375 C-7.4575 19.045 -5.4775 18.715 -3.4375 18.375 C-3.581875 17.80652344 -3.72625 17.23804687 -3.875 16.65234375 C-5.03803174 11.81445478 -5.84670981 7.38782014 -5.4375 2.375 C-3.4375 0.375 -3.4375 0.375 0 0 Z " fill="#302E2F" transform="translate(208.4375,76.625)"/>
<path d="M0 0 C3.48258974 1.35051954 6.82715107 2.8719432 10.1875 4.5 C26.06711144 11.62061942 44.79729507 10.84150152 61 5 C61.7321875 4.62617188 62.464375 4.25234375 63.21875 3.8671875 C65 3 65 3 68 3 C68 3.66 68 4.32 68 5 C55.54394758 16.42365888 41.67035989 20.40118071 24.9296875 20.28515625 C16.32571139 19.66081206 8.12983842 16.86125347 1 12 C-0.26237731 9.47524538 -0.09856404 7.68799534 -0.0625 4.875 C-0.05347656 3.96492188 -0.04445312 3.05484375 -0.03515625 2.1171875 C-0.02355469 1.41851562 -0.01195312 0.71984375 0 0 Z " fill="#EF6208" transform="translate(164,278)"/>
<path d="M0 0 C0.33 0 0.66 0 1 0 C1.03963867 0.71728271 1.07927734 1.43456543 1.12011719 2.17358398 C2.54824786 26.99820345 5.93645178 50.60608949 12.39916992 74.62597656 C13.01803741 77.07127012 13.52558026 79.52299477 14 82 C12.35 82 10.7 82 9 82 C8.67 82.99 8.34 83.98 8 85 C-0.85357276 57.76993945 -5.57695807 30.62353084 -5 2 C-6.85625 2.5259375 -6.85625 2.5259375 -8.75 3.0625 C-11.903292 3.95593273 -13.86774164 4.00881294 -17 3 C-13.85409472 1.1533317 -11.56849948 0.75225717 -7.9375 0.8125 C-6.65166016 0.82216797 -6.65166016 0.82216797 -5.33984375 0.83203125 C-3 1 -3 1 0 2 C0 1.34 0 0.68 0 0 Z " fill="#372E2A" transform="translate(83,68)"/>
<path d="M0 0 C2.13330871 6.21126618 -1.0782549 13.3000491 -3.625 19.0625 C-10.15898701 31.2077354 -22.30347328 40.16591501 -35 45 C-38.33571429 43.88809524 -38.58417079 43.53679327 -40.1875 40.625 C-40.70376953 39.71621094 -40.70376953 39.71621094 -41.23046875 38.7890625 C-42 37 -42 37 -42 34 C-41.18917969 33.72027344 -40.37835938 33.44054687 -39.54296875 33.15234375 C-22.43615658 26.95884132 -7.97209414 16.79146399 0 0 Z " fill="#F06309" transform="translate(144,267)"/>
<path d="M0 0 C10.34901951 9.55021011 15.66712731 25.09355106 16.30859375 38.9609375 C16.60855519 52.97113643 16.60855519 52.97113643 14 59 C10.63601278 62.36398722 7.47660097 63.59024168 3 65 C3.32484375 64.04480469 3.32484375 64.04480469 3.65625 63.0703125 C9.47968516 42.74221015 6.69818619 19.7620245 0 0 Z " fill="#F36208" transform="translate(283,222)"/>
<path d="M0 0 C0.33 0 0.66 0 1 0 C1.86096724 5.93794073 2.15794958 11.69125468 2.125 17.6875 C2.12234131 18.5638208 2.11968262 19.4401416 2.11694336 20.34301758 C2.05395236 29.02062579 1.42424014 37.57555497 0.375 46.1875 C-0.3220191 49.79981159 -0.3220191 49.79981159 1 52 C1.99 51.01 2.98 50.02 4 49 C3.52019308 56.83428742 2.22365582 64.16081612 0.25 71.75 C-0.14989136 73.31282715 -0.14989136 73.31282715 -0.55786133 74.90722656 C-6.46769598 97.61870531 -6.46769598 97.61870531 -11 103 C-11 100.03 -11 97.06 -11 94 C-11.99 95.65 -12.98 97.3 -14 99 C-15 97 -15 97 -13.9609375 93.421875 C-13.43592463 91.86335479 -12.90696848 90.30615979 -12.375 88.75 C-4.21878013 63.87841694 0.26340772 37.9298214 0.0625 11.75 C0.05798828 10.61175781 0.05347656 9.47351563 0.04882812 8.30078125 C0.03720214 5.53379591 0.02086431 2.76692842 0 0 Z " fill="#3B2D26" transform="translate(349,60)"/>
<path d="M0 0 C3.59771949 1.12428734 4.19074274 1.68083693 6 4.9375 C6.64860701 7.87493418 6.92392907 10.81891459 7.1875 13.8125 C7.3102832 14.99779297 7.3102832 14.99779297 7.43554688 16.20703125 C8.60181041 27.98727303 8.60181041 27.98727303 6.8125 30.8125 C4.36063578 32.33434676 2.83181098 32.37316323 0 31.9375 C-1.9385469 29.02967966 -2.44091468 27.56075713 -3.0703125 24.2265625 C-3.24433594 23.31132813 -3.41835937 22.39609375 -3.59765625 21.453125 C-3.85869141 20.02226563 -3.85869141 20.02226563 -4.125 18.5625 C-4.39763672 17.14324219 -4.39763672 17.14324219 -4.67578125 15.6953125 C-6.80751015 4.28335025 -6.80751015 4.28335025 -4.875 1.0625 C-3 -0.0625 -3 -0.0625 0 0 Z " fill="#342E2D" transform="translate(228,78.0625)"/>
<path d="M0 0 C2.25 0.125 2.25 0.125 5 1 C9 6.08108108 9 6.08108108 9 9 C12.3 8.34 15.6 7.68 19 7 C19 5.68 19 4.36 19 3 C19.66 3 20.32 3 21 3 C21.042721 4.66611905 21.04063832 6.33382885 21 8 C20 9 20 9 16.4375 9.0625 C15.303125 9.041875 14.16875 9.02125 13 9 C13 10.32 13 11.64 13 13 C13.969375 12.67 14.93875 12.34 15.9375 12 C20.29766837 10.73126248 24.49554566 10.81614472 29 11 C29 11.33 29 11.66 29 12 C16.625 13.98 16.625 13.98 4 16 C4 17.98 4 19.96 4 22 C3.67 22 3.34 22 3 22 C3 20.35 3 18.7 3 17 C2.01 17.66 1.02 18.32 0 19 C-0.36498034 21.89608399 -0.36498034 21.89608399 -0.1875 25.125 C-0.14689453 26.76855469 -0.14689453 26.76855469 -0.10546875 28.4453125 C-0.07066406 29.28835937 -0.03585938 30.13140625 0 31 C-4.1922156 23.45401192 -4.50832879 12.69131037 -2.328125 4.46484375 C-1.5 2.5625 -1.5 2.5625 0 0 Z " fill="#372E29" transform="translate(117,85)"/>
<path d="M0 0 C2.28921557 4.08077558 2.29877527 7.95556483 2.3125 12.5625 C2.32925781 13.86316406 2.34601563 15.16382813 2.36328125 16.50390625 C1.99091545 20.08742654 1.45776619 21.45144561 -1 24 C-3.4375 23.625 -3.4375 23.625 -6 23 C-7.20270964 20.59458071 -7.20316663 18.89633409 -7.31640625 16.2109375 C-7.35830078 15.26992187 -7.40019531 14.32890625 -7.44335938 13.359375 C-7.48267578 12.37453125 -7.52199219 11.3896875 -7.5625 10.375 C-7.60568359 9.38242188 -7.64886719 8.38984375 -7.69335938 7.3671875 C-7.79961069 4.91160162 -7.90164964 2.45591297 -8 0 C-5.01122021 -1.4943899 -3.14997454 -0.91874257 0 0 Z " fill="#2E2E30" transform="translate(249,84)"/>
<path d="M0 0 C3.125 0.4375 3.125 0.4375 5.5625 2.6875 C7.125 5.4375 7.125 5.4375 6.875 7.75 C6.6275 8.306875 6.38 8.86375 6.125 9.4375 C5.733125 8.48875 5.34125 7.54 4.9375 6.5625 C2.92706144 3.09622662 1.89800358 2.4572307 -1.875 1.4375 C-2.14118595 8.38791086 -1.4870509 14.67264355 0.125 21.4375 C-0.57367188 21.75203125 -1.27234375 22.0665625 -1.9921875 22.390625 C-2.90226563 22.81859375 -3.81234375 23.2465625 -4.75 23.6875 C-5.65492188 24.10515625 -6.55984375 24.5228125 -7.4921875 24.953125 C-10.16776677 26.6198793 -10.89020003 27.48310008 -11.875 30.4375 C-12.32564632 33.02282701 -12.32564632 33.02282701 -12.5 35.6875 C-12.61214844 37.02554688 -12.61214844 37.02554688 -12.7265625 38.390625 C-12.77554688 39.06609375 -12.82453125 39.7415625 -12.875 40.4375 C-13.205 40.4375 -13.535 40.4375 -13.875 40.4375 C-14.07017554 38.50075815 -14.25587873 36.56305991 -14.4375 34.625 C-14.54191406 33.54605469 -14.64632812 32.46710938 -14.75390625 31.35546875 C-14.875 28.4375 -14.875 28.4375 -13.875 25.4375 C-14.535 25.4375 -15.195 25.4375 -15.875 25.4375 C-16.205 26.7575 -16.535 28.0775 -16.875 29.4375 C-17.535 29.1075 -18.195 28.7775 -18.875 28.4375 C-18.545 27.921875 -18.215 27.40625 -17.875 26.875 C-16.55489123 23.65723488 -16.74257895 20.8804472 -16.875 17.4375 C-16.215 17.1075 -15.555 16.7775 -14.875 16.4375 C-14.46770772 14.11593403 -14.13061323 11.7806213 -13.875 9.4375 C-11.99108215 12.70295761 -11.38212033 15.71861761 -10.875 19.4375 C-7.905 18.7775 -4.935 18.1175 -1.875 17.4375 C-2.37 16.07625 -2.865 14.715 -3.375 13.3125 C-4.62246695 9.55827483 -5.36164764 6.42801063 -4.875 2.4375 C-2.875 0.4375 -2.875 0.4375 0 0 Z " fill="#3A2E2A" transform="translate(190.875,82.5625)"/>
<path d="M0 0 C1.99291992 0.84472656 1.99291992 0.84472656 3.07373047 2.80664062 C3.33968018 3.64936523 3.60562988 4.49208984 3.87963867 5.36035156 C4.17805664 6.28203125 4.47647461 7.20371094 4.78393555 8.15332031 C5.07977539 9.12398437 5.37561523 10.09464844 5.68041992 11.09472656 C5.98786133 12.04992187 6.29530273 13.00511719 6.61206055 13.98925781 C8.8920265 21.16341763 10.12043047 27.32160439 9.99291992 34.84472656 C7.56809451 32.41990115 7.01437718 30.45065156 5.86791992 27.21972656 C3.53557374 20.92520193 0.68061892 15.04609158 -2.50366211 9.13916016 C-3.41015139 7.41023553 -4.2169516 5.62983165 -5.00708008 3.84472656 C-4.67708008 2.85472656 -4.34708008 1.86472656 -4.00708008 0.84472656 C-2.00708008 -0.15527344 -2.00708008 -0.15527344 0 0 Z " fill="#E9620E" transform="translate(251.007080078125,157.1552734375)"/>
<path d="M0 0 C0.99 0.33 1.98 0.66 3 1 C3.50478485 3.41575607 4.00397642 5.83244361 4.5 8.25 C4.64308594 8.93191406 4.78617188 9.61382812 4.93359375 10.31640625 C5.61251049 13.64633121 6 16.58332551 6 20 C2.04276182 19.7716978 -0.32996194 19.54977482 -3.4375 17 C-5.55480066 12.93478274 -5.98322657 9.49358918 -5 5 C-2.5 1.9375 -2.5 1.9375 0 0 Z " fill="#E7620E" transform="translate(55,113)"/>
<path d="M0 0 C3.65316671 1.24976756 4.78065836 1.67098753 7 5 C7.71487182 9.43885526 7.52165047 12.9984311 5.4375 17 C2.33735779 19.54370643 -0.07835978 19.56070308 -4 20 C-3.52745885 16.85313377 -3.04586133 13.70772092 -2.5625 10.5625 C-2.42779297 9.66466797 -2.29308594 8.76683594 -2.15429688 7.84179688 C-2.02216797 6.98779297 -1.89003906 6.13378906 -1.75390625 5.25390625 C-1.63345947 4.46314697 -1.5130127 3.6723877 -1.38891602 2.85766602 C-1 1 -1 1 0 0 Z " fill="#F56408" transform="translate(377,113)"/>
<path d="M0 0 C4.75 0.75 4.75 0.75 7 3 C7.165 3.680625 7.33 4.36125 7.5 5.0625 C7.665 5.701875 7.83 6.34125 8 7 C8.66 7.33 9.32 7.66 10 8 C10.47877076 12.11742854 10.32165374 13.58006317 7.75 16.9375 C6.38875 17.9584375 6.38875 17.9584375 5 19 C2.828125 18.62890625 2.828125 18.62890625 1 18 C-2.63636364 5.27272727 -2.63636364 5.27272727 0 0 Z " fill="#2A2F35" transform="translate(189,84)"/>
<path d="M0 0 C0.33 0 0.66 0 1 0 C1.02936502 3.81248345 1.04692035 7.62493726 1.0625 11.4375 C1.07087891 12.50677734 1.07925781 13.57605469 1.08789062 14.67773438 C1.10684631 20.87624228 0.82063259 26.8549481 0 33 C0.66 33 1.32 33 2 33 C2.66 31.68 3.32 30.36 4 29 C5.98 29 7.96 29 10 29 C10 29.99 10 30.98 10 32 C8.35 31.67 6.7 31.34 5 31 C4.80664062 32.20398438 4.61328125 33.40796875 4.4140625 34.6484375 C4.15146395 36.22402877 3.88841999 37.79954585 3.625 39.375 C3.43550781 40.56609375 3.43550781 40.56609375 3.2421875 41.78125 C3.11328125 42.54179688 2.984375 43.30234375 2.8515625 44.0859375 C2.73635254 44.7876709 2.62114258 45.4894043 2.50244141 46.21240234 C2 48 2 48 0 50 C0 46.7 0 43.4 0 40 C-0.99 40.495 -0.99 40.495 -2 41 C-2 43.31 -2 45.62 -2 48 C-2.99 48 -3.98 48 -5 48 C-4.47531532 43.67135142 -3.91445926 39.35321715 -3.28125 35.0390625 C-1.58395413 23.35470147 -0.42246341 11.79984016 0 0 Z " fill="#452F23" transform="translate(372,83)"/>
<path d="M0 0 C0.33 0 0.66 0 1 0 C1.48124577 2.83299398 1.96004609 5.66636657 2.4375 8.5 C2.57220703 9.29148437 2.70691406 10.08296875 2.84570312 10.8984375 C3.68983017 15.92202284 4.40244023 20.94104741 5 26 C2.10067643 23.60490662 1.49831724 21.68754757 1 18 C0.34 20.64 -0.32 23.28 -1 26 C-5.455 25.01 -5.455 25.01 -10 24 C-9.67 23.34 -9.34 22.68 -9 22 C-6.69 22.66 -4.38 23.32 -2 24 C-2.612668 20.87245024 -3.24221462 17.74853633 -3.875 14.625 C-4.04902344 13.73554687 -4.22304688 12.84609375 -4.40234375 11.9296875 C-4.57636719 11.07890625 -4.75039063 10.228125 -4.9296875 9.3515625 C-5.08679199 8.56604004 -5.24389648 7.78051758 -5.40576172 6.97119141 C-5.89342859 4.79129186 -5.89342859 4.79129186 -8 3 C-6.68 3.33 -5.36 3.66 -4 4 C-3.67 6.31 -3.34 8.62 -3 11 C-2.34 11 -1.68 11 -1 11 C-0.67 7.37 -0.34 3.74 0 0 Z " fill="#3C2E27" transform="translate(63,109)"/>
<path d="M0 0 C0.33 0 0.66 0 1 0 C1 15.51 1 31.02 1 47 C0.67 47 0.34 47 0 47 C-1.52068792 37.6450538 -2.21345994 28.47681695 -2.25 19 C-2.25902344 18.03376709 -2.26804687 17.06753418 -2.27734375 16.07202148 C-2.25367777 10.3729578 -1.62441664 5.46629091 0 0 Z " fill="#C85C19" transform="translate(86,56)"/>
<path d="M0 0 C0.33 0 0.66 0 1 0 C1.33895656 1.72807318 1.67091525 3.45751974 2 5.1875 C2.185625 6.15042969 2.37125 7.11335938 2.5625 8.10546875 C2.96877612 10.7934206 3.07933572 13.28771019 3 16 C1.02 16.33 -0.96 16.66 -3 17 C-3.19335938 16.30132812 -3.38671875 15.60265625 -3.5859375 14.8828125 C-3.84632813 13.97273438 -4.10671875 13.06265625 -4.375 12.125 C-4.63023437 11.22007813 -4.88546875 10.31515625 -5.1484375 9.3828125 C-5.8604315 6.85430274 -5.8604315 6.85430274 -8 5 C-9.98821313 4.60235737 -11.98944339 4.26224651 -14 4 C-13.67 3.34 -13.34 2.68 -13 2 C-7.25 1.875 -7.25 1.875 -5 3 C-4.1484375 4.84765625 -4.1484375 4.84765625 -3.375 7.0625 C-3.11460937 7.79597656 -2.85421875 8.52945313 -2.5859375 9.28515625 C-2.39257812 9.85105469 -2.19921875 10.41695312 -2 11 C-0.33657163 9.33657163 -0.63951903 7.2174291 -0.4375 4.9375 C-0.35371094 4.01839844 -0.26992187 3.09929687 -0.18359375 2.15234375 C-0.12300781 1.44207031 -0.06242188 0.73179688 0 0 Z " fill="#DC6115" transform="translate(202,79)"/>
<path d="M0 0 C5.43637979 4.47701865 8.44570786 10.49903842 11 17 C10.67 17.66 10.34 18.32 10 19 C9.01 18.34 8.02 17.68 7 17 C7 19.97 7 22.94 7 26 C6.67 26 6.34 26 6 26 C5.81824219 24.96101563 5.63648438 23.92203125 5.44921875 22.8515625 C4.05845022 15.0759445 2.5420313 7.49989375 0 0 Z " fill="#DE6113" transform="translate(283,222)"/>
<path d="M0 0 C1.98 0 3.96 0 6 0 C6 0.33 6 0.66 6 1 C4.35 1 2.7 1 1 1 C1.99 4.96 2.98 8.92 4 13 C2.68 13.33 1.36 13.66 0 14 C0.32742188 14.92941406 0.65484375 15.85882813 0.9921875 16.81640625 C2.42159057 21.819317 2.21674356 26.7751602 2.125 31.9375 C2.11597656 32.90751953 2.10695313 33.87753906 2.09765625 34.87695312 C2.07426107 37.25156407 2.04148176 39.62564776 2 42 C1.67 42 1.34 42 1 42 C0.97421875 40.90945312 0.9484375 39.81890625 0.921875 38.6953125 C0.53690742 27.40377175 -1.21994006 16.93921261 -4 6 C-2.68 7.32 -1.36 8.64 0 10 C0 6.7 0 3.4 0 0 Z " fill="#4A2E1E" transform="translate(267,93)"/>
<path d="M0 0 C0 0.66 0 1.32 0 2 C-1.88450676 3.58820066 -3.76186767 5.05282461 -5.75 6.5 C-6.55824219 7.10521484 -6.55824219 7.10521484 -7.3828125 7.72265625 C-13.0814672 11.93410106 -13.0814672 11.93410106 -16 13 C-16.99 12.67 -17.98 12.34 -19 12 C-18.38125 11.938125 -17.7625 11.87625 -17.125 11.8125 C-14.72238859 11.171081 -14.72238859 11.171081 -13.75 8.4375 C-13.5025 7.633125 -13.255 6.82875 -13 6 C-14.65 6 -16.3 6 -18 6 C-14.89034717 4.36798362 -11.73309413 3.08562641 -8.4375 1.875 C-7.48746094 1.52179688 -6.53742188 1.16859375 -5.55859375 0.8046875 C-3 0 -3 0 0 0 Z " fill="#DC6012" transform="translate(232,281)"/>
<path d="M0 0 C1.83836012 3.67672024 1.7530081 8.1647067 2.16210938 12.234375 C2.52939922 16.57207363 2.52939922 16.57207363 5 20 C3.25531628 20.70088156 1.50398839 21.38524009 -0.25 22.0625 C-1.22453125 22.44535156 -2.1990625 22.82820313 -3.203125 23.22265625 C-6.04007395 24.01113787 -7.29409552 24.02437812 -10 23 C-8.625 21.5 -8.625 21.5 -7 20 C-6.34 20 -5.68 20 -5 20 C-5 19.34 -5 18.68 -5 18 C-3.02 17.67 -1.04 17.34 1 17 C0.855625 16.43152344 0.71125 15.86304687 0.5625 15.27734375 C-0.61303412 10.38744837 -1.31434568 6.02953082 -1 1 C-0.67 0.67 -0.34 0.34 0 0 Z " fill="#3E2D23" transform="translate(204,78)"/>
<path d="M0 0 C2.1925202 3.2887803 3.13101908 6.42134502 4.125 10.1875 C4.30385742 10.85789307 4.48271484 11.52828613 4.66699219 12.21899414 C5.87978746 16.98643459 6.39860983 21.11702964 6 26 C3.46811674 23.46811674 2.75446891 21.10034988 1.5 17.75 C1.0771875 16.63109375 0.654375 15.5121875 0.21875 14.359375 C-0.90748115 11.25501992 -1.97289681 8.13837085 -3 5 C-2.34 5 -1.68 5 -1 5 C-0.67 5.99 -0.34 6.98 0 8 C0 5.36 0 2.72 0 0 Z " fill="#CF621E" transform="translate(255,166)"/>
<path d="M0 0 C3.3 0.33 6.6 0.66 10 1 C10 2.65 10 4.3 10 6 C9.34 4.68 8.68 3.36 8 2 C6.02 2.33 4.04 2.66 2 3 C0.85705686 6.42882941 0.79035528 9.24082838 0.68359375 12.85546875 C0.66281265 13.51710526 0.64203156 14.17874176 0.62062073 14.86042786 C0.55535273 16.96934852 0.49634656 19.07839135 0.4375 21.1875 C0.39429311 22.61915315 0.35067812 24.05079404 0.30664062 25.48242188 C0.19969494 28.98815154 0.09836359 32.49401786 0 36 C-0.33 36 -0.66 36 -1 36 C-1.024759 31.51595436 -1.04288799 27.03194519 -1.05493164 22.54785156 C-1.05995365 21.02310493 -1.0667725 19.49836309 -1.07543945 17.97363281 C-1.08759849 15.77928481 -1.09324968 13.5850006 -1.09765625 11.390625 C-1.10289307 10.07094727 -1.10812988 8.75126953 -1.11352539 7.39160156 C-1 4 -1 4 0 0 Z " fill="#DE6619" transform="translate(292,122)"/>
<path d="M0 0 C1.0725 0.309375 2.145 0.61875 3.25 0.9375 C4.4875 1.288125 5.725 1.63875 7 2 C7.62777344 2.18304688 8.25554687 2.36609375 8.90234375 2.5546875 C15.67504191 3.992467 22.53627173 3.2982145 29 1 C27.08864614 4.53600465 25.37357234 6.78972846 22 9 C22 7.68 22 6.36 22 5 C21.16597656 5.03480469 20.33195312 5.06960937 19.47265625 5.10546875 C12.23184082 5.27964644 6.71531509 4.7316536 0 2 C0 1.34 0 0.68 0 0 Z " fill="#D76218" transform="translate(211,143)"/>
<path d="M0 0 C4.24138832 6.36208248 4.29850055 13.28551613 4.1875 20.6875 C4.18685547 21.51572266 4.18621094 22.34394531 4.18554688 23.19726562 C4.15630787 27.25499009 4.00750944 31.04250292 3 35 C2.67 35 2.34 35 2 35 C2.03480469 34.10087891 2.03480469 34.10087891 2.0703125 33.18359375 C2.29160712 22.07144246 1.05606211 11.04933074 0 0 Z " fill="#CA5E19" transform="translate(295,245)"/>
<path d="M0 0 C3.125 0.4375 3.125 0.4375 5.5625 2.6875 C7.125 5.4375 7.125 5.4375 6.875 7.75 C6.6275 8.306875 6.38 8.86375 6.125 9.4375 C5.733125 8.48875 5.34125 7.54 4.9375 6.5625 C2.92706144 3.09622662 1.89800358 2.4572307 -1.875 1.4375 C-1.97977512 7.22341511 -1.86750545 12.73059366 -0.875 18.4375 C-2.195 18.1075 -3.515 17.7775 -4.875 17.4375 C-3.885 17.4375 -2.895 17.4375 -1.875 17.4375 C-2.0915625 16.85742188 -2.308125 16.27734375 -2.53125 15.6796875 C-4.1379793 11.17191919 -5.46713451 7.29300299 -4.875 2.4375 C-2.875 0.4375 -2.875 0.4375 0 0 Z " fill="#4D2F1D" transform="translate(190.875,82.5625)"/>
<path d="M0 0 C1.31534494 3.65857532 0.65468309 6.08026481 -0.4375 9.75 C-0.72496094 10.73484375 -1.01242188 11.7196875 -1.30859375 12.734375 C-1.65083984 13.85585938 -1.65083984 13.85585938 -2 15 C-2.66 14.01 -3.32 13.02 -4 12 C-4.99 12.33 -5.98 12.66 -7 13 C-7 13.66 -7 14.32 -7 15 C-7.66 14.67 -8.32 14.34 -9 14 C-8.51789063 13.32453125 -8.03578125 12.6490625 -7.5390625 11.953125 C-6.90742188 11.06109375 -6.27578125 10.1690625 -5.625 9.25 C-4.99851563 8.36828125 -4.37203125 7.4865625 -3.7265625 6.578125 C-2.28519059 4.42585021 -1.08501907 2.34539477 0 0 Z " fill="#CE611B" transform="translate(144,267)"/>
<path d="M0 0 C-2.31 0.66 -4.62 1.32 -7 2 C-6.195625 2.86625 -5.39125 3.7325 -4.5625 4.625 C-2.03075864 7.62876093 -1.28342624 10.03203262 -1 14 C-3.64 12.02 -6.28 10.04 -9 8 C-8.01 7.67 -7.02 7.34 -6 7 C-6.495 6.401875 -6.99 5.80375 -7.5 5.1875 C-9 3 -9 3 -9 0 C-5.62182575 -0.84454356 -3.32534757 -1.10844919 0 0 Z " fill="#CC611E" transform="translate(237,118)"/>
<path d="M0 0 C18.05698529 -0.62867647 18.05698529 -0.62867647 25 4 C25 4.66 25 5.32 25 6 C24.46375 5.79503906 23.9275 5.59007812 23.375 5.37890625 C15.33151967 2.61395989 7.42214202 2.30302992 -1 2 C-0.67 1.34 -0.34 0.68 0 0 Z " fill="#CB5C14" transform="translate(195,236)"/>
<path d="M0 0 C3.59698636 3.59698636 3.2132479 7.64594451 3.25 12.4375 C3.28867188 14.41556641 3.28867188 14.41556641 3.328125 16.43359375 C2.99278944 20.07837191 2.50424009 21.42326875 0 24 C-1.65 23.67 -3.3 23.34 -5 23 C-5 22.34 -5 21.68 -5 21 C-3.02 21 -1.04 21 1 21 C0.814375 20.360625 0.62875 19.72125 0.4375 19.0625 C0.293125 18.381875 0.14875 17.70125 0 17 C0.33 16.67 0.66 16.34 1 16 C1.09823937 14.33570949 1.12973631 12.66718069 1.125 11 C1.12757813 10.0925 1.13015625 9.185 1.1328125 8.25 C1.25173779 6.03033389 1.25173779 6.03033389 0 5 C-0.04063832 3.33382885 -0.042721 1.66611905 0 0 Z " fill="#532F19" transform="translate(248,84)"/>
<path d="M0 0 C0.33 0 0.66 0 1 0 C1.66 2.64 2.32 5.28 3 8 C5.64 7.01 8.28 6.02 11 5 C9.8141763 8.37503669 8.72426311 10.64722731 6 13 C3.2614331 11.9958588 2.18790425 11.33822766 0.75 8.75 C-0.07592799 5.72159739 -0.14534994 3.1250237 0 0 Z " fill="#412D23" transform="translate(302,123)"/>
<path d="M0 0 C1.65 0 3.3 0 5 0 C0.82594698 3.82552374 -3.2937865 5.44633717 -8.5625 7.1875 C-9.31724609 7.44724609 -10.07199219 7.70699219 -10.84960938 7.97460938 C-14.21150505 9.12091213 -17.54423567 10.17128992 -21 11 C-21 10.01 -21 9.02 -21 8 C-19.80761719 7.65066406 -18.61523438 7.30132812 -17.38671875 6.94140625 C-15.82030407 6.48179955 -14.25389829 6.02216255 -12.6875 5.5625 C-11.50897461 5.21735352 -11.50897461 5.21735352 -10.30664062 4.86523438 C-9.54931641 4.64287109 -8.79199219 4.42050781 -8.01171875 4.19140625 C-7.31522217 3.98717041 -6.61872559 3.78293457 -5.90112305 3.57250977 C-4.25826234 3.07777388 -2.62769144 2.54256381 -1 2 C-0.67 1.34 -0.34 0.68 0 0 Z " fill="#462E1D" transform="translate(292,298)"/>
<path d="M0 0 C3.65316671 1.24976756 4.78065836 1.67098753 7 5 C7.1953125 7.26171875 7.1953125 7.26171875 7.125 9.6875 C7.10695313 10.49574219 7.08890625 11.30398437 7.0703125 12.13671875 C7.03550781 13.05904297 7.03550781 13.05904297 7 14 C6.67 14 6.34 14 6 14 C5.67 10.7 5.34 7.4 5 4 C3.68 4 2.36 4 1 4 C0.01 7.96 -0.98 11.92 -2 16 C-2.99747768 12.01008929 -2.89032392 10.23871653 -2.125 6.3125 C-1.85042969 4.85263672 -1.85042969 4.85263672 -1.5703125 3.36328125 C-1 1 -1 1 0 0 Z " fill="#C7601E" transform="translate(377,113)"/>
<path d="M0 0 C3.27227431 3.70594922 4.64472288 7.91015426 6.25 12.5 C6.53101563 13.25925781 6.81203125 14.01851562 7.1015625 14.80078125 C7.36195313 15.53683594 7.62234375 16.27289063 7.890625 17.03125 C8.12813477 17.69705078 8.36564453 18.36285156 8.61035156 19.04882812 C9.06705347 21.3357715 8.71402646 22.80280709 8 25 C7.67386719 24.05898437 7.34773438 23.11796875 7.01171875 22.1484375 C6.57472656 20.90320313 6.13773437 19.65796875 5.6875 18.375 C5.25824219 17.14523438 4.82898438 15.91546875 4.38671875 14.6484375 C3.07548201 11.00810103 3.07548201 11.00810103 1.34375 7.71875 C-0.07178342 4.85476378 -0.27751224 3.14513872 0 0 Z " fill="#CE601B" transform="translate(307,213)"/>
<path d="M0 0 C0.66 0 1.32 0 2 0 C3.48520725 2.97041449 3.1705822 5.69764447 3.1875 9 C3.20167969 10.258125 3.21585937 11.51625 3.23046875 12.8125 C3 16 3 16 1 18 C-1.3828125 18.4140625 -1.3828125 18.4140625 -4.125 18.625 C-5.03507812 18.69976562 -5.94515625 18.77453125 -6.8828125 18.8515625 C-7.93082031 18.92503906 -7.93082031 18.92503906 -9 19 C-9 18.67 -9 18.34 -9 18 C-7.906875 17.7525 -6.81375 17.505 -5.6875 17.25 C-2.11225819 16.27419011 -2.11225819 16.27419011 -0.0625 14.4375 C1.95748298 9.8034214 1.57553761 4.72661283 0 0 Z " fill="#4C3020" transform="translate(382,115)"/>
<path d="M0 0 C-1.51029096 1.51029096 -3.16068543 1.3658009 -5.25 1.6875 C-10.42045969 2.74789634 -11.99014953 4.80445086 -15 9 C-15.66 9 -16.32 9 -17 9 C-16.12492713 5.06217208 -15.64672866 3.41678069 -12.1875 1.1875 C-7.75839387 -0.46255915 -4.58279314 -1.52759771 0 0 Z " fill="#D56219" transform="translate(104,46)"/>
<path d="M0 0 C0.33 0 0.66 0 1 0 C1.68891608 3.31932293 1.93187464 4.79574657 1 8 C-2.33533359 12.05878713 -6.0677107 15.52732893 -10 19 C-10.66 18.67 -11.32 18.34 -12 18 C-11.38511719 17.45472656 -10.77023437 16.90945313 -10.13671875 16.34765625 C-4.73681189 11.30946564 -1.50056555 7.29585321 0 0 Z " fill="#D6621A" transform="translate(311,279)"/>
<path d="M0 0 C0.33 0 0.66 0 1 0 C1.2954439 5.02254631 0.98514628 7.89542386 -2 12 C-3.65 11.67 -5.3 11.34 -7 11 C-6.67 10.01 -6.34 9.02 -6 8 C-5.01 7.67 -4.02 7.34 -3 7 C-2.34 7.33 -1.68 7.66 -1 8 C-0.67 5.36 -0.34 2.72 0 0 Z " fill="#3E2D26" transform="translate(131,123)"/>
<path d="M0 0 C0 0.66 0 1.32 0 2 C-2 3.625 -2 3.625 -4 5 C-2.68 5.99 -1.36 6.98 0 8 C-1.65 8.33 -3.3 8.66 -5 9 C-5 8.01 -5 7.02 -5 6 C-7.97 5.505 -7.97 5.505 -11 5 C-3.5 0 -3.5 0 0 0 Z " fill="#C46020" transform="translate(209,118)"/>
<path d="M0 0 C0.9681648 3.8726592 1.07622858 7.03611362 1 11 C3.31 11.33 5.62 11.66 8 12 C8 12.66 8 13.32 8 14 C6.54077307 13.88590407 5.08259402 13.75834456 3.625 13.625 C2.81289063 13.55539063 2.00078125 13.48578125 1.1640625 13.4140625 C-1 13 -1 13 -3 11 C-2.01 7.37 -1.02 3.74 0 0 Z " fill="#CB611E" transform="translate(300,80)"/>
<path d="M0 0 C0.680625 0.309375 1.36125 0.61875 2.0625 0.9375 C-1.12345135 3.57728826 -4.24720546 6.04248388 -7.9375 7.9375 C-8.5975 7.6075 -9.2575 7.2775 -9.9375 6.9375 C-3.86310175 -0.08219365 -3.86310175 -0.08219365 0 0 Z " fill="#4C3221" transform="translate(148.9375,327.0625)"/>
<path d="M0 0 C1.875 0.25 1.875 0.25 4 1 C5.0625 2.875 5.0625 2.875 6 5 C6.98095748 6.01868662 7.97702078 7.02351983 9 8 C9 8.33 9 8.66 9 9 C1.25 9.125 1.25 9.125 -1 8 C-0.67 7.34 -0.34 6.68 0 6 C1.32 6 2.64 6 4 6 C3.34 5.195625 2.68 4.39125 2 3.5625 C0 1 0 1 0 0 Z " fill="#463124" transform="translate(252,262)"/>
<path d="M0 0 C3.59478807 3.32850747 6.22364768 6.98971331 9 11 C3.46153846 10.38461538 3.46153846 10.38461538 1.125 8.4375 C0.75375 7.963125 0.3825 7.48875 0 7 C0.66 6.34 1.32 5.68 2 5 C1.34 3.35 0.68 1.7 0 0 Z " fill="#C8601E" transform="translate(249,259)"/>
<path d="M0 0 C2.74792483 3.40219265 6 7.48464588 6 12 C4.35 11.67 2.7 11.34 1 11 C1.33 10.01 1.66 9.02 2 8 C1.34 8 0.68 8 0 8 C0 5.36 0 2.72 0 0 Z " fill="#412E25" transform="translate(279,183)"/>
<path d="M0 0 C5.94 0 11.88 0 18 0 C15 3 15 3 12.6953125 3.109375 C11.84710938 2.99078125 10.99890625 2.8721875 10.125 2.75 C9.24328125 2.63269531 8.3615625 2.51539063 7.453125 2.39453125 C4.9522496 1.9923204 2.46743534 1.57573491 0 1 C0 0.67 0 0.34 0 0 Z " fill="#CF6018" transform="translate(305,175)"/>
<path d="M0 0 C0.66 0.33 1.32 0.66 2 1 C-2.625 5.875 -2.625 5.875 -6 7 C-8.1875 6.5625 -8.1875 6.5625 -10 6 C-10 5.01 -10 4.02 -10 3 C-8.515 3.99 -8.515 3.99 -7 5 C-4.69 3.35 -2.38 1.7 0 0 Z " fill="#472F20" transform="translate(137,335)"/>
<path d="M0 0 C3.39417765 3.12621626 5.6062718 5.56541027 7 10 C5.68 10 4.36 10 3 10 C2.01 6.7 1.02 3.4 0 0 Z " fill="#C86325" transform="translate(283,222)"/>
<path d="M0 0 C0.33 0 0.66 0 1 0 C1.53181175 2.24743045 2.05007126 4.49807102 2.5625 6.75 C2.85253906 8.00296875 3.14257812 9.2559375 3.44140625 10.546875 C3.93444283 13.59473748 4.07666879 15.17641828 3 18 C-0.61861111 12.57208334 -0.11082539 6.31704728 0 0 Z " fill="#472D1D" transform="translate(64,117)"/>
<path d="M0 0 C1.65 0.99 3.3 1.98 5 3 C2.53721199 4.231394 0.7204945 4.07159196 -2 4 C-2.0825 4.61875 -2.165 5.2375 -2.25 5.875 C-3 8 -3 8 -5.046875 9.1328125 C-5.69140625 9.41898437 -6.3359375 9.70515625 -7 10 C-6.02223933 8.51990357 -5.0427506 7.04094856 -4.0625 5.5625 C-3.51722656 4.73878906 -2.97195312 3.91507812 -2.41015625 3.06640625 C-1 1 -1 1 0 0 Z " fill="#D26119" transform="translate(145,308)"/>
<path d="M0 0 C0.66 0.33 1.32 0.66 2 1 C0.88200014 2.33920838 -0.24461897 3.67122556 -1.375 5 C-2.00148438 5.7425 -2.62796875 6.485 -3.2734375 7.25 C-4.12808594 8.11625 -4.12808594 8.11625 -5 9 C-5.66 9 -6.32 9 -7 9 C-6.09539273 5.29933391 -5.56131642 3.43502022 -2.5 1.0625 C-1.675 0.711875 -0.85 0.36125 0 0 Z " fill="#DC6114" transform="translate(89,213)"/>
<path d="M0 0 C2.02225194 3.0333779 2.99347524 5.61344489 4.125 9.0625 C4.47820312 10.12597656 4.83140625 11.18945312 5.1953125 12.28515625 C6 15 6 15 6 17 C5.01 16.67 4.02 16.34 3 16 C2.05078125 13.41796875 2.05078125 13.41796875 1.3125 10.1875 C1.06113281 9.12917969 0.80976562 8.07085937 0.55078125 6.98046875 C0 4 0 4 0 0 Z " fill="#52321E" transform="translate(69,139)"/>
<path d="M0 0 C0.75 1.75 0.75 1.75 1 4 C-0.6875 6.3125 -0.6875 6.3125 -3 8 C-5.25 7.75 -5.25 7.75 -7 7 C-5.625 5.5 -5.625 5.5 -4 4 C-3.34 4 -2.68 4 -2 4 C-1.34 2.68 -0.68 1.36 0 0 Z " fill="#D75D12" transform="translate(137,318)"/>
<path d="M0 0 C0.33 0.99 0.66 1.98 1 3 C2.65 3 4.3 3 6 3 C5.67 3.66 5.34 4.32 5 5 C2.71484375 5.4140625 2.71484375 5.4140625 -0.0625 5.625 C-0.98160156 5.69976562 -1.90070313 5.77453125 -2.84765625 5.8515625 C-3.91306641 5.92503906 -3.91306641 5.92503906 -5 6 C-3.35 4.02 -1.7 2.04 0 0 Z " fill="#C45E20" transform="translate(255,139)"/>
<path d="M0 0 C0.66 0.33 1.32 0.66 2 1 C0.02 3.31 -1.96 5.62 -4 8 C-4.99 7.01 -5.98 6.02 -7 5 C-4.69 3.35 -2.38 1.7 0 0 Z " fill="#D26117" transform="translate(128,326)"/>
<path d="M0 0 C2.475 0.99 2.475 0.99 5 2 C3.68 2.33 2.36 2.66 1 3 C1.309375 4.27875 1.61875 5.5575 1.9375 6.875 C2.19853516 7.95394531 2.19853516 7.95394531 2.46484375 9.0546875 C2.94846992 11.0585657 2.94846992 11.0585657 4 13 C3.01 12.67 2.02 12.34 1 12 C-0.26237731 9.47524538 -0.09856404 7.68799534 -0.0625 4.875 C-0.05347656 3.96492188 -0.04445312 3.05484375 -0.03515625 2.1171875 C-0.02355469 1.41851562 -0.01195312 0.71984375 0 0 Z " fill="#D2641F" transform="translate(164,278)"/>
<path d="M0 0 C0 0.66 0 1.32 0 2 C-1.96147874 3.38938077 -3.96166576 4.7260411 -6 6 C-6 5.34 -6 4.68 -6 4 C-7.32 3.67 -8.64 3.34 -10 3 C-3.375 0 -3.375 0 0 0 Z " fill="#D56620" transform="translate(232,281)"/>
<path d="M0 0 C0.33 0 0.66 0 1 0 C1.125 2.875 1.125 2.875 1 6 C0.34 6.66 -0.32 7.32 -1 8 C-3.625 7.625 -3.625 7.625 -6 7 C-6 6.34 -6 5.68 -6 5 C-4.02 5 -2.04 5 0 5 C-0.2784375 4.0409375 -0.2784375 4.0409375 -0.5625 3.0625 C-0.706875 2.381875 -0.85125 1.70125 -1 1 C-0.67 0.67 -0.34 0.34 0 0 Z " fill="#4A3122" transform="translate(249,100)"/>
<path d="M0 0 C0.33 0 0.66 0 1 0 C1 1.98 1 3.96 1 6 C2.65 5.67 4.3 5.34 6 5 C3.16604069 7.32789515 1.70488428 8.07377893 -2 9 C-1.34 6.03 -0.68 3.06 0 0 Z " fill="#C55F1F" transform="translate(288,278)"/>
<path d="M0 0 C0 4.38968456 -2.12805101 5.76905739 -5 9 C-6.32 8.67 -7.64 8.34 -9 8 C-6.03 5.36 -3.06 2.72 0 0 Z " fill="#482F22" transform="translate(169,248)"/>
<path d="M0 0 C1.32 0 2.64 0 4 0 C4.33 1.32 4.66 2.64 5 4 C4.34 4 3.68 4 3 4 C2.67 5.65 2.34 7.3 2 9 C0.14223235 5.86501708 -0.20140476 3.62528568 0 0 Z " fill="#D45F18" transform="translate(287,232)"/>
<path d="M0 0 C0.8125 1.625 0.8125 1.625 1 4 C-0.46818136 6.24609835 -2.15852858 8.02378677 -4 10 C-4.66 9.67 -5.32 9.34 -6 9 C-4.47291037 5.56404834 -2.40072955 2.88087546 0 0 Z " fill="#462C1F" transform="translate(239,145)"/>
<path d="M0 0 C2.31 0 4.62 0 7 0 C4 2 4 2 2 3 C1.53348793 5.12576782 1.53348793 5.12576782 1.375 7.5625 C1.30023438 8.38878906 1.22546875 9.21507813 1.1484375 10.06640625 C1.09945312 10.70449219 1.05046875 11.34257813 1 12 C0.67 12 0.34 12 0 12 C0 8.04 0 4.08 0 0 Z " fill="#C55917" transform="translate(187,111)"/>
<path d="M0 0 C0 3 0 3 -1.3125 4.6875 C-3 6 -3 6 -6 6 C-6.33 6.99 -6.66 7.98 -7 9 C-7.99 8.34 -8.98 7.68 -10 7 C-6.7 4.69 -3.4 2.38 0 0 Z " fill="#472D1B" transform="translate(309,305)"/>
<path d="M0 0 C2.69082872 0.17635452 5.32851446 0.61835921 8 1 C7.67 1.99 7.34 2.98 7 4 C4.125 4.1875 4.125 4.1875 1 4 C0.34 3.01 -0.32 2.02 -1 1 C-0.67 0.67 -0.34 0.34 0 0 Z " fill="#47362C" transform="translate(226,278)"/>
<path d="M0 0 C-1 3 -1 3 -2.8125 4.25 C-5.33943414 5.11637742 -6.52221994 4.88492145 -9 4 C-2.25 0 -2.25 0 0 0 Z " fill="#3D2C23" transform="translate(91,226)"/>
<path d="M0 0 C2.18975773 3.28463659 2.99806563 6.20696275 4 10 C2.68 9.67 1.36 9.34 0 9 C0 6.03 0 3.06 0 0 Z " fill="#CB631F" transform="translate(91,153)"/>
<path d="M0 0 C-0.6875 2.375 -0.6875 2.375 -2 5 C-4.625 6.3125 -4.625 6.3125 -7 7 C-3.86206897 0 -3.86206897 0 0 0 Z " fill="#DC6216" transform="translate(185,75)"/>
<path d="M0 0 C0.66 0.33 1.32 0.66 2 1 C0.8125 3 0.8125 3 -1 5 C-3.6875 5.25 -3.6875 5.25 -6 5 C-4.06745228 2.9754262 -2.36841312 1.57894208 0 0 Z " fill="#4B2F1D" transform="translate(124,303)"/>
<path d="M0 0 C0.96706319 3.00864103 1.27677226 5.05360248 0 8 C-2.0625 9.25 -2.0625 9.25 -4 10 C-2.66666667 6.66666667 -1.33333333 3.33333333 0 0 Z " fill="#52321F" transform="translate(142,280)"/>
<path d="M0 0 C7.50769231 0.61538462 7.50769231 0.61538462 10 2.5625 C10.33 3.036875 10.66 3.51125 11 4 C7.0507432 3.44894091 3.65079826 2.61064629 0 1 C0 0.67 0 0.34 0 0 Z " fill="#482D1D" transform="translate(173,282)"/>
<path d="M0 0 C0.66 0.33 1.32 0.66 2 1 C1.67 1.66 1.34 2.32 1 3 C0.77377919 4.70363822 0.59111527 6.41328701 0.4375 8.125 C0.31181641 9.49011719 0.31181641 9.49011719 0.18359375 10.8828125 C0.12300781 11.58148438 0.06242188 12.28015625 0 13 C-0.33 13 -0.66 13 -1 13 C-1.33 9.04 -1.66 5.08 -2 1 C-1.34 0.67 -0.68 0.34 0 0 Z " fill="#653920" transform="translate(178,110)"/>
<path d="M0 0 C7.50769231 -0.36923077 7.50769231 -0.36923077 10 1.5 C10.495 2.2425 10.495 2.2425 11 3 C9.741875 2.87625 8.48375 2.7525 7.1875 2.625 C6.12595703 2.52058594 6.12595703 2.52058594 5.04296875 2.4140625 C3 2 3 2 0 0 Z " fill="#492E1D" transform="translate(356,69)"/>
<path d="M0 0 C6.625 0.75 6.625 0.75 10 3 C7.03 3 4.06 3 1 3 C0.67 2.01 0.34 1.02 0 0 Z " fill="#422D23" transform="translate(164,335)"/>
<path d="M0 0 C-1.28965176 1.37562854 -2.62689293 2.70766393 -4 4 C-4.66 4 -5.32 4 -6 4 C-6 3.34 -6 2.68 -6 2 C-6.66 2 -7.32 2 -8 2 C-7.67 1.34 -7.34 0.68 -7 0 C-2.52459016 -1.26229508 -2.52459016 -1.26229508 0 0 Z " fill="#412F25" transform="translate(114,311)"/>
<path d="M0 0 C0.33 0.66 0.66 1.32 1 2 C0.06553465 4.03144641 -0.93224776 6.03533587 -2 8 C-2.99 7.34 -3.98 6.68 -5 6 C-3.35 4.02 -1.7 2.04 0 0 Z " fill="#503221" transform="translate(137,290)"/>
<path d="M0 0 C1.2380014 3.57644848 0.74926071 6.33694766 0 10 C-0.99 9.67 -1.98 9.34 -3 9 C-2.30058404 5.85262818 -1.23921302 2.97411124 0 0 Z " fill="#3F2D23" transform="translate(287,278)"/>
<path d="M0 0 C6.625 -0.25 6.625 -0.25 10 2 C10 2.66 10 3.32 10 4 C6.7 3.01 3.4 2.02 0 1 C0 0.67 0 0.34 0 0 Z " fill="#D76016" transform="translate(210,238)"/>
<path d="M0 0 C0.33 0 0.66 0 1 0 C1 1.65 1 3.3 1 5 C1.99 5.33 2.98 5.66 4 6 C2.35 6.66 0.7 7.32 -1 8 C-0.67 5.36 -0.34 2.72 0 0 Z " fill="#B55A22" transform="translate(81,223)"/>
</svg>
